%TF.GenerationSoftware,KiCad,Pcbnew,7.0.10-7.0.10~ubuntu22.04.1*%
%TF.CreationDate,2024-03-22T22:41:02+05:30*%
%TF.ProjectId,LEd_Display,4c45645f-4469-4737-906c-61792e6b6963,rev?*%
%TF.SameCoordinates,Original*%
%TF.FileFunction,Soldermask,Bot*%
%TF.FilePolarity,Negative*%
%FSLAX46Y46*%
G04 Gerber Fmt 4.6, Leading zero omitted, Abs format (unit mm)*
G04 Created by KiCad (PCBNEW 7.0.10-7.0.10~ubuntu22.04.1) date 2024-03-22 22:41:02*
%MOMM*%
%LPD*%
G01*
G04 APERTURE LIST*
G04 Aperture macros list*
%AMRoundRect*
0 Rectangle with rounded corners*
0 $1 Rounding radius*
0 $2 $3 $4 $5 $6 $7 $8 $9 X,Y pos of 4 corners*
0 Add a 4 corners polygon primitive as box body*
4,1,4,$2,$3,$4,$5,$6,$7,$8,$9,$2,$3,0*
0 Add four circle primitives for the rounded corners*
1,1,$1+$1,$2,$3*
1,1,$1+$1,$4,$5*
1,1,$1+$1,$6,$7*
1,1,$1+$1,$8,$9*
0 Add four rect primitives between the rounded corners*
20,1,$1+$1,$2,$3,$4,$5,0*
20,1,$1+$1,$4,$5,$6,$7,0*
20,1,$1+$1,$6,$7,$8,$9,0*
20,1,$1+$1,$8,$9,$2,$3,0*%
G04 Aperture macros list end*
%ADD10RoundRect,0.054180X-0.842820X-0.332820X0.842820X-0.332820X0.842820X0.332820X-0.842820X0.332820X0*%
%ADD11O,1.700000X1.700000*%
%ADD12R,1.700000X1.700000*%
%ADD13C,1.800000*%
%ADD14R,1.800000X1.800000*%
G04 APERTURE END LIST*
D10*
%TO.C,U1*%
X215250000Y-79275000D03*
X215250000Y-78005000D03*
X215250000Y-76735000D03*
X215250000Y-75465000D03*
X215250000Y-74195000D03*
X215250000Y-72925000D03*
X215250000Y-71655000D03*
X215250000Y-70385000D03*
X220670000Y-70385000D03*
X220670000Y-71655000D03*
X220670000Y-72925000D03*
X220670000Y-74195000D03*
X220670000Y-75465000D03*
X220670000Y-76735000D03*
X220670000Y-78005000D03*
X220670000Y-79275000D03*
%TD*%
D11*
%TO.C,J1*%
X225500000Y-84855000D03*
X225500000Y-82315000D03*
X225500000Y-79775000D03*
X225500000Y-77235000D03*
X225500000Y-74695000D03*
X225500000Y-72155000D03*
X225500000Y-69615000D03*
D12*
X225500000Y-67075000D03*
%TD*%
D13*
%TO.C,D192*%
X209250000Y-101290000D03*
D14*
X209250000Y-98750000D03*
%TD*%
D13*
%TO.C,D191*%
X209250000Y-94290000D03*
D14*
X209250000Y-91750000D03*
%TD*%
D13*
%TO.C,D190*%
X209250000Y-87040000D03*
D14*
X209250000Y-84500000D03*
%TD*%
D13*
%TO.C,D189*%
X209250000Y-80290000D03*
D14*
X209250000Y-77750000D03*
%TD*%
D13*
%TO.C,D188*%
X209250000Y-73275000D03*
D14*
X209250000Y-70735000D03*
%TD*%
D13*
%TO.C,D187*%
X209250000Y-66290000D03*
D14*
X209250000Y-63750000D03*
%TD*%
D13*
%TO.C,D186*%
X209250000Y-59290000D03*
D14*
X209250000Y-56750000D03*
%TD*%
D13*
%TO.C,D185*%
X209250000Y-52290000D03*
D14*
X209250000Y-49750000D03*
%TD*%
D13*
%TO.C,D184*%
X203750000Y-101275000D03*
D14*
X203750000Y-98735000D03*
%TD*%
D13*
%TO.C,D183*%
X203750000Y-94290000D03*
D14*
X203750000Y-91750000D03*
%TD*%
D13*
%TO.C,D182*%
X203750000Y-87040000D03*
D14*
X203750000Y-84500000D03*
%TD*%
D13*
%TO.C,D181*%
X203750000Y-80315000D03*
D14*
X203750000Y-77775000D03*
%TD*%
D13*
%TO.C,D180*%
X203750000Y-73290000D03*
D14*
X203750000Y-70750000D03*
%TD*%
D13*
%TO.C,D179*%
X203750000Y-66290000D03*
D14*
X203750000Y-63750000D03*
%TD*%
D13*
%TO.C,D178*%
X203750000Y-59290000D03*
D14*
X203750000Y-56750000D03*
%TD*%
D13*
%TO.C,D177*%
X203750000Y-52290000D03*
D14*
X203750000Y-49750000D03*
%TD*%
D13*
%TO.C,D176*%
X198250000Y-101290000D03*
D14*
X198250000Y-98750000D03*
%TD*%
D13*
%TO.C,D175*%
X198250000Y-94290000D03*
D14*
X198250000Y-91750000D03*
%TD*%
D13*
%TO.C,D174*%
X198250000Y-87040000D03*
D14*
X198250000Y-84500000D03*
%TD*%
D13*
%TO.C,D173*%
X198250000Y-80290000D03*
D14*
X198250000Y-77750000D03*
%TD*%
D13*
%TO.C,D172*%
X198250000Y-73290000D03*
D14*
X198250000Y-70750000D03*
%TD*%
D13*
%TO.C,D171*%
X198250000Y-66290000D03*
D14*
X198250000Y-63750000D03*
%TD*%
D13*
%TO.C,D170*%
X198250000Y-59315000D03*
D14*
X198250000Y-56775000D03*
%TD*%
D13*
%TO.C,D169*%
X198250000Y-52315000D03*
D14*
X198250000Y-49775000D03*
%TD*%
D13*
%TO.C,D168*%
X192750000Y-101290000D03*
D14*
X192750000Y-98750000D03*
%TD*%
D13*
%TO.C,D167*%
X192750000Y-94290000D03*
D14*
X192750000Y-91750000D03*
%TD*%
D13*
%TO.C,D166*%
X192750000Y-87040000D03*
D14*
X192750000Y-84500000D03*
%TD*%
D13*
%TO.C,D165*%
X192750000Y-80290000D03*
D14*
X192750000Y-77750000D03*
%TD*%
D13*
%TO.C,D164*%
X192750000Y-73290000D03*
D14*
X192750000Y-70750000D03*
%TD*%
D13*
%TO.C,D163*%
X192750000Y-66290000D03*
D14*
X192750000Y-63750000D03*
%TD*%
D13*
%TO.C,D162*%
X192750000Y-59290000D03*
D14*
X192750000Y-56750000D03*
%TD*%
D13*
%TO.C,D161*%
X192750000Y-52290000D03*
D14*
X192750000Y-49750000D03*
%TD*%
D13*
%TO.C,D160*%
X187250000Y-101290000D03*
D14*
X187250000Y-98750000D03*
%TD*%
D13*
%TO.C,D159*%
X187250000Y-94290000D03*
D14*
X187250000Y-91750000D03*
%TD*%
D13*
%TO.C,D158*%
X187250000Y-87040000D03*
D14*
X187250000Y-84500000D03*
%TD*%
D13*
%TO.C,D157*%
X187250000Y-80290000D03*
D14*
X187250000Y-77750000D03*
%TD*%
D13*
%TO.C,D156*%
X187250000Y-73290000D03*
D14*
X187250000Y-70750000D03*
%TD*%
D13*
%TO.C,D155*%
X187250000Y-66290000D03*
D14*
X187250000Y-63750000D03*
%TD*%
D13*
%TO.C,D154*%
X187250000Y-59290000D03*
D14*
X187250000Y-56750000D03*
%TD*%
D13*
%TO.C,D153*%
X187250000Y-52290000D03*
D14*
X187250000Y-49750000D03*
%TD*%
%TO.C,D152*%
X181750000Y-98750000D03*
D13*
X181750000Y-101290000D03*
%TD*%
D14*
%TO.C,D151*%
X181750000Y-91750000D03*
D13*
X181750000Y-94290000D03*
%TD*%
D14*
%TO.C,D150*%
X181750000Y-84500000D03*
D13*
X181750000Y-87040000D03*
%TD*%
D14*
%TO.C,D149*%
X181750000Y-77750000D03*
D13*
X181750000Y-80290000D03*
%TD*%
D14*
%TO.C,D148*%
X181750000Y-70750000D03*
D13*
X181750000Y-73290000D03*
%TD*%
D14*
%TO.C,D147*%
X181750000Y-63775000D03*
D13*
X181750000Y-66315000D03*
%TD*%
D14*
%TO.C,D146*%
X181750000Y-56775000D03*
D13*
X181750000Y-59315000D03*
%TD*%
D14*
%TO.C,D145*%
X181750000Y-49735000D03*
D13*
X181750000Y-52275000D03*
%TD*%
%TO.C,D144*%
X176250000Y-101315000D03*
D14*
X176250000Y-98775000D03*
%TD*%
D13*
%TO.C,D143*%
X176250000Y-94290000D03*
D14*
X176250000Y-91750000D03*
%TD*%
D13*
%TO.C,D142*%
X176250000Y-87040000D03*
D14*
X176250000Y-84500000D03*
%TD*%
D13*
%TO.C,D141*%
X176250000Y-80315000D03*
D14*
X176250000Y-77775000D03*
%TD*%
%TO.C,D140*%
X176250000Y-70775000D03*
D13*
X176250000Y-73315000D03*
%TD*%
D14*
%TO.C,D139*%
X176250000Y-63775000D03*
D13*
X176250000Y-66315000D03*
%TD*%
D14*
%TO.C,D138*%
X176250000Y-56775000D03*
D13*
X176250000Y-59315000D03*
%TD*%
D14*
%TO.C,D137*%
X176250000Y-49775000D03*
D13*
X176250000Y-52315000D03*
%TD*%
%TO.C,D136*%
X170750000Y-101315000D03*
D14*
X170750000Y-98775000D03*
%TD*%
D13*
%TO.C,D135*%
X170750000Y-94315000D03*
D14*
X170750000Y-91775000D03*
%TD*%
D13*
%TO.C,D134*%
X170700000Y-87075000D03*
D14*
X170700000Y-84535000D03*
%TD*%
D13*
%TO.C,D133*%
X170750000Y-80315000D03*
D14*
X170750000Y-77775000D03*
%TD*%
D13*
%TO.C,D132*%
X170750000Y-73315000D03*
D14*
X170750000Y-70775000D03*
%TD*%
%TO.C,D131*%
X170750000Y-63775000D03*
D13*
X170750000Y-66315000D03*
%TD*%
D14*
%TO.C,D130*%
X170750000Y-56775000D03*
D13*
X170750000Y-59315000D03*
%TD*%
%TO.C,D129*%
X170750000Y-52315000D03*
D14*
X170750000Y-49775000D03*
%TD*%
D13*
%TO.C,D128*%
X165250000Y-101275000D03*
D14*
X165250000Y-98735000D03*
%TD*%
%TO.C,D127*%
X165250000Y-91775000D03*
D13*
X165250000Y-94315000D03*
%TD*%
D14*
%TO.C,D126*%
X165250000Y-84525000D03*
D13*
X165250000Y-87065000D03*
%TD*%
D14*
%TO.C,D125*%
X165250000Y-77775000D03*
D13*
X165250000Y-80315000D03*
%TD*%
D14*
%TO.C,D124*%
X165250000Y-70775000D03*
D13*
X165250000Y-73315000D03*
%TD*%
D14*
%TO.C,D123*%
X165250000Y-63735000D03*
D13*
X165250000Y-66275000D03*
%TD*%
D14*
%TO.C,D122*%
X165250000Y-56750000D03*
D13*
X165250000Y-59290000D03*
%TD*%
D14*
%TO.C,D121*%
X165250000Y-49775000D03*
D13*
X165250000Y-52315000D03*
%TD*%
%TO.C,D120*%
X159750000Y-101290000D03*
D14*
X159750000Y-98750000D03*
%TD*%
D13*
%TO.C,D119*%
X159750000Y-94290000D03*
D14*
X159750000Y-91750000D03*
%TD*%
D13*
%TO.C,D118*%
X159750000Y-87040000D03*
D14*
X159750000Y-84500000D03*
%TD*%
D13*
%TO.C,D117*%
X159750000Y-80315000D03*
D14*
X159750000Y-77775000D03*
%TD*%
D13*
%TO.C,D116*%
X159750000Y-73290000D03*
D14*
X159750000Y-70750000D03*
%TD*%
D13*
%TO.C,D115*%
X159750000Y-66290000D03*
D14*
X159750000Y-63750000D03*
%TD*%
D13*
%TO.C,D114*%
X159750000Y-59315000D03*
D14*
X159750000Y-56775000D03*
%TD*%
D13*
%TO.C,D113*%
X159750000Y-52290000D03*
D14*
X159750000Y-49750000D03*
%TD*%
D13*
%TO.C,D112*%
X154250000Y-101315000D03*
D14*
X154250000Y-98775000D03*
%TD*%
D13*
%TO.C,D111*%
X154250000Y-94315000D03*
D14*
X154250000Y-91775000D03*
%TD*%
D13*
%TO.C,D110*%
X154250000Y-87065000D03*
D14*
X154250000Y-84525000D03*
%TD*%
D13*
%TO.C,D109*%
X154250000Y-80315000D03*
D14*
X154250000Y-77775000D03*
%TD*%
D13*
%TO.C,D108*%
X154250000Y-73315000D03*
D14*
X154250000Y-70775000D03*
%TD*%
D13*
%TO.C,D107*%
X154250000Y-66315000D03*
D14*
X154250000Y-63775000D03*
%TD*%
D13*
%TO.C,D106*%
X154250000Y-59315000D03*
D14*
X154250000Y-56775000D03*
%TD*%
D13*
%TO.C,D105*%
X154250000Y-52290000D03*
D14*
X154250000Y-49750000D03*
%TD*%
D13*
%TO.C,D104*%
X148750000Y-101315000D03*
D14*
X148750000Y-98775000D03*
%TD*%
D13*
%TO.C,D103*%
X148750000Y-94315000D03*
D14*
X148750000Y-91775000D03*
%TD*%
D13*
%TO.C,D102*%
X148750000Y-87315000D03*
D14*
X148750000Y-84775000D03*
%TD*%
D13*
%TO.C,D101*%
X148750000Y-80315000D03*
D14*
X148750000Y-77775000D03*
%TD*%
D13*
%TO.C,D100*%
X148750000Y-73315000D03*
D14*
X148750000Y-70775000D03*
%TD*%
D13*
%TO.C,D99*%
X148750000Y-66290000D03*
D14*
X148750000Y-63750000D03*
%TD*%
D13*
%TO.C,D98*%
X148750000Y-59315000D03*
D14*
X148750000Y-56775000D03*
%TD*%
D13*
%TO.C,D97*%
X148750000Y-52315000D03*
D14*
X148750000Y-49775000D03*
%TD*%
D13*
%TO.C,D96*%
X143250000Y-101275000D03*
D14*
X143250000Y-98735000D03*
%TD*%
%TO.C,D95*%
X143250000Y-91775000D03*
D13*
X143250000Y-94315000D03*
%TD*%
D14*
%TO.C,D94*%
X143250000Y-84735000D03*
D13*
X143250000Y-87275000D03*
%TD*%
D14*
%TO.C,D93*%
X143250000Y-77775000D03*
D13*
X143250000Y-80315000D03*
%TD*%
D14*
%TO.C,D92*%
X143250000Y-70775000D03*
D13*
X143250000Y-73315000D03*
%TD*%
D14*
%TO.C,D91*%
X143250000Y-63775000D03*
D13*
X143250000Y-66315000D03*
%TD*%
D14*
%TO.C,D90*%
X143250000Y-56775000D03*
D13*
X143250000Y-59315000D03*
%TD*%
D14*
%TO.C,D89*%
X143250000Y-49775000D03*
D13*
X143250000Y-52315000D03*
%TD*%
%TO.C,D88*%
X137750000Y-101315000D03*
D14*
X137750000Y-98775000D03*
%TD*%
D13*
%TO.C,D87*%
X137750000Y-94315000D03*
D14*
X137750000Y-91775000D03*
%TD*%
D13*
%TO.C,D86*%
X137750000Y-87315000D03*
D14*
X137750000Y-84775000D03*
%TD*%
D13*
%TO.C,D85*%
X137750000Y-80315000D03*
D14*
X137750000Y-77775000D03*
%TD*%
D13*
%TO.C,D84*%
X137750000Y-73315000D03*
D14*
X137750000Y-70775000D03*
%TD*%
D13*
%TO.C,D83*%
X137750000Y-66315000D03*
D14*
X137750000Y-63775000D03*
%TD*%
D13*
%TO.C,D82*%
X137750000Y-59315000D03*
D14*
X137750000Y-56775000D03*
%TD*%
D13*
%TO.C,D81*%
X137750000Y-52315000D03*
D14*
X137750000Y-49775000D03*
%TD*%
D13*
%TO.C,D80*%
X132250000Y-101315000D03*
D14*
X132250000Y-98775000D03*
%TD*%
D13*
%TO.C,D79*%
X132250000Y-94315000D03*
D14*
X132250000Y-91775000D03*
%TD*%
D13*
%TO.C,D78*%
X132250000Y-87315000D03*
D14*
X132250000Y-84775000D03*
%TD*%
D13*
%TO.C,D77*%
X132250000Y-80315000D03*
D14*
X132250000Y-77775000D03*
%TD*%
D13*
%TO.C,D76*%
X132250000Y-73315000D03*
D14*
X132250000Y-70775000D03*
%TD*%
D13*
%TO.C,D75*%
X132250000Y-66315000D03*
D14*
X132250000Y-63775000D03*
%TD*%
D13*
%TO.C,D74*%
X132250000Y-59315000D03*
D14*
X132250000Y-56775000D03*
%TD*%
D13*
%TO.C,D73*%
X132250000Y-52290000D03*
D14*
X132250000Y-49750000D03*
%TD*%
D13*
%TO.C,D72*%
X126750000Y-101290000D03*
D14*
X126750000Y-98750000D03*
%TD*%
D13*
%TO.C,D71*%
X126750000Y-94315000D03*
D14*
X126750000Y-91775000D03*
%TD*%
D13*
%TO.C,D70*%
X126750000Y-87315000D03*
D14*
X126750000Y-84775000D03*
%TD*%
D13*
%TO.C,D69*%
X126750000Y-80290000D03*
D14*
X126750000Y-77750000D03*
%TD*%
D13*
%TO.C,D68*%
X126750000Y-73315000D03*
D14*
X126750000Y-70775000D03*
%TD*%
D13*
%TO.C,D67*%
X126750000Y-66290000D03*
D14*
X126750000Y-63750000D03*
%TD*%
D13*
%TO.C,D66*%
X126750000Y-59315000D03*
D14*
X126750000Y-56775000D03*
%TD*%
D13*
%TO.C,D65*%
X126750000Y-52315000D03*
D14*
X126750000Y-49775000D03*
%TD*%
D13*
%TO.C,D64*%
X121250000Y-101315000D03*
D14*
X121250000Y-98775000D03*
%TD*%
D13*
%TO.C,D63*%
X121250000Y-94315000D03*
D14*
X121250000Y-91775000D03*
%TD*%
D13*
%TO.C,D62*%
X121250000Y-87315000D03*
D14*
X121250000Y-84775000D03*
%TD*%
D13*
%TO.C,D61*%
X121250000Y-80315000D03*
D14*
X121250000Y-77775000D03*
%TD*%
D13*
%TO.C,D60*%
X121250000Y-73315000D03*
D14*
X121250000Y-70775000D03*
%TD*%
D13*
%TO.C,D59*%
X121250000Y-66315000D03*
D14*
X121250000Y-63775000D03*
%TD*%
D13*
%TO.C,D58*%
X121250000Y-59275000D03*
D14*
X121250000Y-56735000D03*
%TD*%
D13*
%TO.C,D57*%
X121250000Y-52290000D03*
D14*
X121250000Y-49750000D03*
%TD*%
D13*
%TO.C,D56*%
X115750000Y-101315000D03*
D14*
X115750000Y-98775000D03*
%TD*%
D13*
%TO.C,D55*%
X115750000Y-94315000D03*
D14*
X115750000Y-91775000D03*
%TD*%
%TO.C,D54*%
X115750000Y-84775000D03*
D13*
X115750000Y-87315000D03*
%TD*%
%TO.C,D53*%
X115750000Y-80315000D03*
D14*
X115750000Y-77775000D03*
%TD*%
D13*
%TO.C,D52*%
X115750000Y-73315000D03*
D14*
X115750000Y-70775000D03*
%TD*%
D13*
%TO.C,D51*%
X115750000Y-66315000D03*
D14*
X115750000Y-63775000D03*
%TD*%
%TO.C,D50*%
X115750000Y-56775000D03*
D13*
X115750000Y-59315000D03*
%TD*%
%TO.C,D49*%
X115750000Y-52315000D03*
D14*
X115750000Y-49775000D03*
%TD*%
D13*
%TO.C,D48*%
X110250000Y-101315000D03*
D14*
X110250000Y-98775000D03*
%TD*%
D13*
%TO.C,D47*%
X110250000Y-94315000D03*
D14*
X110250000Y-91775000D03*
%TD*%
D13*
%TO.C,D46*%
X110250000Y-87315000D03*
D14*
X110250000Y-84775000D03*
%TD*%
D13*
%TO.C,D45*%
X110250000Y-80290000D03*
D14*
X110250000Y-77750000D03*
%TD*%
D13*
%TO.C,D44*%
X110250000Y-73315000D03*
D14*
X110250000Y-70775000D03*
%TD*%
D13*
%TO.C,D43*%
X110250000Y-66315000D03*
D14*
X110250000Y-63775000D03*
%TD*%
D13*
%TO.C,D42*%
X110250000Y-59275000D03*
D14*
X110250000Y-56735000D03*
%TD*%
D13*
%TO.C,D41*%
X110250000Y-52275000D03*
D14*
X110250000Y-49735000D03*
%TD*%
D13*
%TO.C,D40*%
X104750000Y-101290000D03*
D14*
X104750000Y-98750000D03*
%TD*%
D13*
%TO.C,D39*%
X104750000Y-94290000D03*
D14*
X104750000Y-91750000D03*
%TD*%
D13*
%TO.C,D38*%
X104750000Y-87290000D03*
D14*
X104750000Y-84750000D03*
%TD*%
D13*
%TO.C,D37*%
X104750000Y-80290000D03*
D14*
X104750000Y-77750000D03*
%TD*%
D13*
%TO.C,D36*%
X104750000Y-73290000D03*
D14*
X104750000Y-70750000D03*
%TD*%
D13*
%TO.C,D35*%
X104750000Y-66315000D03*
D14*
X104750000Y-63775000D03*
%TD*%
D13*
%TO.C,D34*%
X104750000Y-59315000D03*
D14*
X104750000Y-56775000D03*
%TD*%
D13*
%TO.C,D33*%
X104750000Y-52315000D03*
D14*
X104750000Y-49775000D03*
%TD*%
D13*
%TO.C,D32*%
X99250000Y-101315000D03*
D14*
X99250000Y-98775000D03*
%TD*%
D13*
%TO.C,D31*%
X99250000Y-94275000D03*
D14*
X99250000Y-91735000D03*
%TD*%
D13*
%TO.C,D30*%
X99250000Y-87290000D03*
D14*
X99250000Y-84750000D03*
%TD*%
D13*
%TO.C,D29*%
X99250000Y-80315000D03*
D14*
X99250000Y-77775000D03*
%TD*%
D13*
%TO.C,D28*%
X99250000Y-73315000D03*
D14*
X99250000Y-70775000D03*
%TD*%
D13*
%TO.C,D27*%
X99250000Y-66315000D03*
D14*
X99250000Y-63775000D03*
%TD*%
D13*
%TO.C,D26*%
X99250000Y-59315000D03*
D14*
X99250000Y-56775000D03*
%TD*%
D13*
%TO.C,D25*%
X99250000Y-52315000D03*
D14*
X99250000Y-49775000D03*
%TD*%
D13*
%TO.C,D24*%
X93750000Y-101315000D03*
D14*
X93750000Y-98775000D03*
%TD*%
D13*
%TO.C,D23*%
X93750000Y-94315000D03*
D14*
X93750000Y-91775000D03*
%TD*%
D13*
%TO.C,D22*%
X93750000Y-87315000D03*
D14*
X93750000Y-84775000D03*
%TD*%
%TO.C,D21*%
X93750000Y-77750000D03*
D13*
X93750000Y-80290000D03*
%TD*%
%TO.C,D20*%
X93750000Y-73315000D03*
D14*
X93750000Y-70775000D03*
%TD*%
D13*
%TO.C,D19*%
X93750000Y-66315000D03*
D14*
X93750000Y-63775000D03*
%TD*%
D13*
%TO.C,D18*%
X93750000Y-59315000D03*
D14*
X93750000Y-56775000D03*
%TD*%
D13*
%TO.C,D17*%
X93750000Y-52315000D03*
D14*
X93750000Y-49775000D03*
%TD*%
D13*
%TO.C,D16*%
X88250000Y-101315000D03*
D14*
X88250000Y-98775000D03*
%TD*%
D13*
%TO.C,D15*%
X88250000Y-94315000D03*
D14*
X88250000Y-91775000D03*
%TD*%
D13*
%TO.C,D14*%
X88250000Y-87315000D03*
D14*
X88250000Y-84775000D03*
%TD*%
D13*
%TO.C,D13*%
X88250000Y-80315000D03*
D14*
X88250000Y-77775000D03*
%TD*%
D13*
%TO.C,D12*%
X88250000Y-73315000D03*
D14*
X88250000Y-70775000D03*
%TD*%
D13*
%TO.C,D11*%
X88250000Y-66315000D03*
D14*
X88250000Y-63775000D03*
%TD*%
D13*
%TO.C,D10*%
X88250000Y-59315000D03*
D14*
X88250000Y-56775000D03*
%TD*%
D13*
%TO.C,D9*%
X88250000Y-52315000D03*
D14*
X88250000Y-49775000D03*
%TD*%
D13*
%TO.C,D8*%
X82750000Y-101315000D03*
D14*
X82750000Y-98775000D03*
%TD*%
D13*
%TO.C,D7*%
X82750000Y-94315000D03*
D14*
X82750000Y-91775000D03*
%TD*%
D13*
%TO.C,D6*%
X82750000Y-87315000D03*
D14*
X82750000Y-84775000D03*
%TD*%
D13*
%TO.C,D5*%
X82750000Y-80315000D03*
D14*
X82750000Y-77775000D03*
%TD*%
D13*
%TO.C,D4*%
X82750000Y-73315000D03*
D14*
X82750000Y-70775000D03*
%TD*%
D13*
%TO.C,D3*%
X82750000Y-66315000D03*
D14*
X82750000Y-63775000D03*
%TD*%
D13*
%TO.C,D2*%
X82750000Y-59315000D03*
D14*
X82750000Y-56775000D03*
%TD*%
D13*
%TO.C,D1*%
X82750000Y-52315000D03*
D14*
X82750000Y-49775000D03*
%TD*%
M02*
